<?xml version="1.0" encoding="UTF-8"?>
<svg xmlns="http://www.w3.org/2000/svg" viewBox="0 0 160 160">
  <defs>
    <style>
      .cls-1 {
        fill: #fff;
      }

      .cls-2 {
        fill: #232526;
      }

      .cls-3 {
        fill: #dadbdb;
      }
    </style>
  </defs>
  <rect width="160" height="160"/>
  <g id="Layer_1" data-name="Layer 1">
    <polygon points="56.31 96.26 56.31 96.33 56.3 96.34 56.3 96.27 56.31 96.26"/>
    <g>
      <g>
        <path class="cls-3" d="M56.34,107.01l-21.37,25.12h21.35v-24.83l.02-.03c0-.09,0-.17,0-.26Z"/>
        <polygon class="cls-3" points="125.03 132.13 99.77 132.13 71.51 89.18 85.08 73.21 125.03 132.13"/>
      </g>
      <path class="cls-1" d="M97.87,27.87c-.19.22-.41.47-.65.74l.59-.74-1.17,1.39c-.17.21-.36.41-.55.65-.39.45-.8.94-1.25,1.46-.37.43-.74.87-1.14,1.32-.36.4-.72.83-1.09,1.27-11.69,13.5-35.21,40.65-36.54,42.17-.01.01-.03.03-.04.04l.25-48.3h-21.3v104.26l36.54-42.95,13.57-15.97,21.08-24.79,17.47-20.55h-25.77ZM56.31,102.37h-.01s0-.06,0-.06h.01s0,.06,0,.06Z"/>
    </g>
    <path class="cls-2" d="M97.87,25.86c-.19.22-.41.47-.65.74l.59-.74h.06Z"/>
  </g>
</svg>